<svg width="30" height="31" viewBox="0 0 30 31" fill="none" xmlns="http://www.w3.org/2000/svg">
<path d="M15 0C12.0333 0 9.13319 0.892672 6.66645 2.56513C4.19972 4.23759 2.27713 6.61472 1.14181 9.39592C0.00649923 12.1771 -0.290551 15.2375 0.288227 18.19C0.867006 21.1425 2.29562 23.8545 4.3934 25.9832C6.49119 28.1118 9.16393 29.5614 12.0736 30.1487C14.9834 30.736 17.9994 30.4346 20.7403 29.2826C23.4811 28.1306 25.8238 26.1797 27.472 23.6767C29.1203 21.1737 30 18.2309 30 15.2206C30 11.1838 28.4196 7.31242 25.6066 4.45801C22.7936 1.60359 18.9783 0 15 0ZM18.8013 13.7786L18.5526 15.8995C18.5419 15.9979 18.4956 16.0888 18.4227 16.1547C18.3498 16.2205 18.2555 16.2566 18.1579 16.256H15.9868V22.5445C15.9874 22.6196 15.9586 22.6918 15.9069 22.7455C15.8551 22.7991 15.7845 22.8298 15.7105 22.8309H13.5C13.4632 22.8304 13.4269 22.8225 13.393 22.8077C13.3592 22.7929 13.3286 22.7715 13.303 22.7448C13.2773 22.718 13.2571 22.6863 13.2435 22.6516C13.2299 22.6169 13.2232 22.5798 13.2237 22.5425L13.2355 16.256H11.5915C11.4868 16.256 11.3864 16.2138 11.3123 16.1387C11.2383 16.0636 11.1967 15.9617 11.1967 15.8554V13.7366C11.1967 13.6303 11.2383 13.5285 11.3123 13.4534C11.3864 13.3782 11.4868 13.336 11.5915 13.336H13.2237V11.2813C13.2237 8.90404 14.6191 7.61029 16.6579 7.61029H18.3296C18.4343 7.61029 18.5347 7.65249 18.6087 7.72761C18.6828 7.80272 18.7243 7.9046 18.7243 8.01083V9.79525C18.7243 9.90148 18.6828 10.0034 18.6087 10.0785C18.5347 10.1536 18.4343 10.1958 18.3296 10.1958H17.3053C16.1961 10.2138 15.9868 10.7525 15.9868 11.5576V13.33H18.4184C18.4735 13.3313 18.5277 13.3443 18.5775 13.3681C18.6274 13.3919 18.6718 13.426 18.7078 13.4682C18.7439 13.5105 18.7708 13.5599 18.7869 13.6134C18.803 13.6669 18.8079 13.7231 18.8013 13.7786Z" fill="url(#paint0_linear_146_9968)"/>
<defs>
<linearGradient id="paint0_linear_146_9968" x1="-1.77815e-07" y1="0.5" x2="59.5" y2="35.5" gradientUnits="userSpaceOnUse">
<stop offset="0.1018" stop-color="#0254B6"/>
<stop offset="0.490489" stop-color="#4DA3DA"/>
</linearGradient>
</defs>
</svg>
