<svg width="30" height="30" viewBox="0 0 30 30" fill="none" xmlns="http://www.w3.org/2000/svg">
<path d="M15 17.3702C16.3092 17.3702 17.3704 16.3089 17.3704 14.9998C17.3704 13.6907 16.3092 12.6294 15 12.6294C13.6909 12.6294 12.6296 13.6907 12.6296 14.9998C12.6296 16.3089 13.6909 17.3702 15 17.3702Z" fill="url(#paint0_linear_146_9962)"/>
<path d="M18.0315 9.00977H11.9683C11.1832 9.00977 10.4301 9.32168 9.87493 9.87688C9.31972 10.4321 9.00781 11.1851 9.00781 11.9703V18.0315C9.00781 18.8167 9.31972 19.5697 9.87493 20.1249C10.4301 20.6801 11.1832 20.992 11.9683 20.992H18.0315C18.8167 20.992 19.5697 20.6801 20.1249 20.1249C20.6801 19.5697 20.992 18.8167 20.992 18.0315V11.9683C20.9915 11.1835 20.6794 10.431 20.1242 9.87619C19.5691 9.32141 18.8163 9.00977 18.0315 9.00977ZM14.9999 18.8802C14.2324 18.8806 13.482 18.6533 12.8436 18.2272C12.2053 17.801 11.7076 17.1952 11.4136 16.4862C11.1196 15.7772 11.0425 14.9969 11.192 14.2441C11.3415 13.4913 11.7109 12.7997 12.2535 12.2568C12.7961 11.714 13.4875 11.3442 14.2402 11.1943C14.993 11.0445 15.7733 11.1212 16.4824 11.4148C17.1915 11.7084 17.7977 12.2058 18.2241 12.8439C18.6506 13.4821 18.8782 14.2324 18.8782 14.9999C18.8772 16.0283 18.4683 17.0144 17.7412 17.7418C17.0142 18.4692 16.0284 18.8786 14.9999 18.8802ZM18.9019 12.0788C18.712 12.0792 18.5263 12.0233 18.3682 11.918C18.2102 11.8128 18.0869 11.663 18.0141 11.4876C17.9413 11.3123 17.9221 11.1192 17.959 10.933C17.996 10.7467 18.0874 10.5756 18.2217 10.4414C18.3559 10.3071 18.527 10.2157 18.7133 10.1788C18.8995 10.1418 19.0926 10.161 19.2679 10.2338C19.4433 10.3067 19.593 10.4299 19.6983 10.588C19.8035 10.746 19.8595 10.9317 19.8591 11.1216C19.8586 11.3753 19.7576 11.6185 19.5782 11.7979C19.3988 11.9773 19.1556 12.0783 18.9019 12.0788Z" fill="url(#paint1_linear_146_9962)"/>
<path d="M15 0C12.0333 0 9.13319 0.879735 6.66645 2.52796C4.19972 4.17618 2.27713 6.51886 1.14181 9.25975C0.00649923 12.0006 -0.290551 15.0166 0.288228 17.9264C0.867006 20.8361 2.29562 23.5088 4.3934 25.6066C6.49119 27.7044 9.16394 29.133 12.0737 29.7118C14.9834 30.2906 17.9994 29.9935 20.7403 28.8582C23.4811 27.7229 25.8238 25.8003 27.472 23.3336C29.1203 20.8668 30 17.9667 30 15C30 11.0218 28.4197 7.20644 25.6066 4.3934C22.7936 1.58035 18.9783 0 15 0ZM22.5 18.0316C22.499 19.2164 22.0278 20.3523 21.1901 21.1901C20.3523 22.0278 19.2164 22.499 18.0316 22.5H11.9684C10.7838 22.4984 9.64816 22.0272 8.81051 21.1895C7.97286 20.3518 7.50157 19.2162 7.50001 18.0316V11.9684C7.50157 10.7838 7.97286 9.64815 8.81051 8.8105C9.64816 7.97285 10.7838 7.50157 11.9684 7.5H18.0316C19.2162 7.50157 20.3519 7.97285 21.1895 8.8105C22.0272 9.64815 22.4984 10.7838 22.5 11.9684V18.0316Z" fill="url(#paint2_linear_146_9962)"/>
<defs>
<linearGradient id="paint0_linear_146_9962" x1="13.6568" y1="12.9454" x2="17.8445" y2="17.6072" gradientUnits="userSpaceOnUse">
<stop stop-color="#0456B8"/>
<stop offset="0.745616" stop-color="#489DD8"/>
</linearGradient>
<linearGradient id="paint1_linear_146_9962" x1="11.6044" y1="9.80858" x2="22.1885" y2="21.5928" gradientUnits="userSpaceOnUse">
<stop stop-color="#0456B8"/>
<stop offset="0.745616" stop-color="#489DD8"/>
</linearGradient>
<linearGradient id="paint2_linear_146_9962" x1="6.5" y1="2" x2="33" y2="31.5" gradientUnits="userSpaceOnUse">
<stop stop-color="#0456B8"/>
<stop offset="0.745616" stop-color="#489DD8"/>
</linearGradient>
</defs>
</svg>
