<svg width="30" height="31" viewBox="0 0 30 31" fill="none" xmlns="http://www.w3.org/2000/svg">
<path d="M15 30.4412C23.2863 30.4412 30 23.6287 30 15.2206C30 6.81248 23.2863 0 15 0C6.71375 0 0 6.81248 0 15.2206C0 23.6287 6.71375 30.4412 15 30.4412ZM6.86375 14.8908L21.3263 9.23255C21.9975 8.98649 22.5837 9.39871 22.3662 10.4286L22.3675 10.4274L19.905 22.1992C19.7225 23.0338 19.2337 23.2368 18.55 22.8436L14.8 20.0392L12.9912 21.8073C12.7912 22.0102 12.6225 22.1815 12.235 22.1815L12.5013 18.3091L19.4513 11.938C19.7537 11.6678 19.3837 11.5156 18.985 11.7845L10.3963 17.2716L6.69375 16.0996C5.89 15.8408 5.8725 15.284 6.86375 14.8908Z" fill="url(#paint0_linear_146_9960)"/>
<defs>
<linearGradient id="paint0_linear_146_9960" x1="15" y1="0" x2="36.5" y2="31.5" gradientUnits="userSpaceOnUse">
<stop stop-color="#0355B7"/>
<stop offset="0.660094" stop-color="#499ED8"/>
</linearGradient>
</defs>
</svg>
